<?xml version="1.0" encoding="utf-8"?>
<!-- Generator: Adobe Illustrator 25.4.1, SVG Export Plug-In . SVG Version: 6.00 Build 0)  -->
<svg version="1.1" id="Laag_1" xmlns="http://www.w3.org/2000/svg" xmlns:xlink="http://www.w3.org/1999/xlink" x="0px" y="0px"
	 viewBox="0 0 384.94 384.94" style="enable-background:new 0 0 384.94 384.94;" xml:space="preserve">
<style type="text/css">
	.st0{fill:#FFFFFF;}
</style>
<path class="st0" d="M201.63,305.42l46.97-46.97l-12.73-12.73l-34.24,34.24V272c5.67-3.33,9.36-9.68,8.79-16.85
	c-0.67-8.42-7.36-15.35-15.75-16.28c-10.77-1.19-19.88,7.21-19.88,17.73c0,6.57,3.56,12.3,8.85,15.39v7.97l-34.25-34.25
	l-12.73,12.73l46.97,46.97v19.82l-46.97,46.97l12.73,12.73l43.24-43.24l43.24,43.24l12.73-12.73l-46.97-46.97V305.42z"/>
<path class="st0" d="M341.7,192.88l43.24-43.24l-12.73-12.73l-46.97,46.97h-19.83l-46.97-46.97l-12.73,12.73l34.24,34.24H272
	c-3.33-5.67-9.68-9.36-16.85-8.79c-8.42,0.67-15.35,7.36-16.28,15.75c-1.19,10.77,7.21,19.88,17.73,19.88
	c6.57,0,12.3-3.56,15.39-8.85h7.96l-34.25,34.25l12.73,12.73l46.97-46.97h19.82l46.97,46.97l12.73-12.73L341.7,192.88z"/>
<path class="st0" d="M235.87,139.23l12.73-12.73l-46.97-46.97V59.7l46.97-46.97L235.87,0l-43.24,43.24L149.38,0l-12.73,12.73
	l46.97,46.97v19.83l-46.97,46.97l12.73,12.73l34.24-34.24v7.96c-5.67,3.33-9.36,9.68-8.79,16.85c0.67,8.42,7.36,15.35,15.75,16.28
	c10.77,1.19,19.88-7.21,19.88-17.73c0-6.57-3.56-12.3-8.85-15.39v-7.97L235.87,139.23z"/>
<path class="st0" d="M128.34,210.73c10.53,0,18.93-9.12,17.73-19.88c-0.93-8.39-7.86-15.08-16.28-15.75
	c-7.17-0.57-13.53,3.12-16.85,8.79h-7.97l34.25-34.25l-12.73-12.73l-46.97,46.97H59.7l-46.97-46.97L0,149.63l43.24,43.24L0,236.12
	l12.73,12.73l46.97-46.97h19.83l46.97,46.97l12.73-12.73l-34.24-34.24h7.96C116.04,207.17,121.77,210.73,128.34,210.73z"/>
</svg>
