<?xml version="1.0" encoding="utf-8"?>
<!-- Generator: Adobe Illustrator 24.1.2, SVG Export Plug-In . SVG Version: 6.00 Build 0)  -->
<svg version="1.1" id="Layer_1" xmlns="http://www.w3.org/2000/svg" xmlns:xlink="http://www.w3.org/1999/xlink" x="0px" y="0px"
	 viewBox="0 0 245.62 150" style="enable-background:new 0 0 245.62 150;" xml:space="preserve">
<style type="text/css">
	.st0{fill:#1756A7;}
</style>
<polygon class="st0" points="0,75 0,150 75,150 150,150 150,116.7 150,83.4 147.27,83.4 144.54,83.4 144.51,94.08 144.47,104.75 
	134.79,93.75 125.13,82.75 124.23,82.75 123.33,82.75 123.33,99.08 123.33,115.39 125.93,115.39 128.53,115.39 128.56,104.65 
	128.6,93.89 136.57,102.95 144.54,112.01 144.54,128.28 144.54,144.55 75,144.55 5.46,144.55 5.46,75 5.46,5.47 75,5.47 
	144.54,5.47 144.51,33.79 144.47,62.13 129.48,62.17 114.48,62.19 114.48,48.48 114.48,34.73 111.88,34.73 109.28,34.73 
	109.28,50.74 109.28,66.74 129.64,66.74 150,66.74 150,33.38 150,0 75,0 0,0 "/>
<path class="st0" d="M40.2,50.41v16.33h2.6h2.6l0.03-10.76l0.03-10.76l9.7,11.02l9.69,11.04h0.87h0.88V51V34.73h-2.54h-2.53v10.66
	c0,5.86-0.05,10.68-0.11,10.68c-0.06,0-4.45-4.94-9.77-11l-9.67-11h-0.9h-0.9V50.41z"/>
<polygon class="st0" points="74.81,50.75 74.81,66.75 77.35,66.75 79.88,66.75 79.91,59.42 79.94,52.12 87.99,52.08 96.01,52.04 
	96.01,59.4 96.01,66.75 98.62,66.75 101.22,66.75 101.22,50.75 101.22,34.74 98.62,34.74 96.01,34.74 96.01,41.1 96.01,47.49 
	87.99,47.47 79.94,47.43 79.91,41.06 79.88,34.74 77.35,34.74 74.81,34.74 "/>
<path class="st0" d="M219.21,99.06v16.32h2.52h2.56v-10.74c0-6.45,0.04-10.71,0.1-10.69c0.08,0.01,4.45,4.96,9.75,10.97l9.61,10.93
	l0.94,0.04l0.94,0.04V99.65V83.39h-2.6h-2.6l-0.04,10.69l-0.04,10.72l-9.69-11.03l-9.69-11.04l-0.88-0.01h-0.88V99.06z"/>
<path class="st0" d="M47.16,83.07c-3.59,0.8-6.44,3.31-7.16,6.33c-0.24,1.07-0.24,3.07,0,4.14c0.52,2.19,2.23,4.1,5.21,5.84
	c0.51,0.28,2.2,1.13,3.77,1.85c5.63,2.6,6.5,3.37,6.49,5.72c0,0.81-0.05,1.12-0.35,1.72c-1.39,2.85-6,3.54-9.59,1.45
	c-0.83-0.5-2.67-2.2-3.54-3.28l-0.45-0.59l-1.77,1.35c-0.99,0.74-1.78,1.4-1.78,1.46c0,0.28,1.3,2.03,2.16,2.9
	c1.67,1.68,3.85,2.94,6.27,3.6c0.87,0.25,1.35,0.28,3.61,0.28c2.46,0,2.66-0.02,3.75-0.34c4.51-1.4,7-4.54,6.98-8.86
	c-0.01-2.31-0.71-4.06-2.28-5.62c-1.22-1.21-2.58-2.09-5-3.28c-1.11-0.53-2.95-1.43-4.1-1.98c-3.36-1.63-4.14-2.37-4.32-4.08
	c-0.37-3.55,4.23-5.45,8.28-3.4c0.93,0.46,2.44,1.79,3.07,2.69l0.25,0.37l1.69-1.3c0.92-0.73,1.74-1.38,1.81-1.45
	c0.16-0.16-0.9-1.59-1.84-2.49c-1.56-1.47-3.67-2.59-5.78-3.04C51.4,82.82,48.25,82.82,47.16,83.07z"/>
<polygon class="st0" points="64.14,85.67 64.14,87.96 69.54,87.96 74.93,87.96 74.93,101.68 74.93,115.41 77.47,115.41 
	80.01,115.41 80.04,101.71 80.07,88.01 85.51,87.98 90.94,87.96 90.94,85.67 90.94,83.4 77.54,83.4 64.14,83.4 "/>
<polygon class="st0" points="95.75,99.4 95.75,115.41 106.54,115.41 117.35,115.41 117.35,113.12 117.35,110.86 109.12,110.83 
	100.88,110.78 100.84,105.74 100.81,100.7 106.87,100.7 112.92,100.7 112.92,98.42 112.92,96.15 106.87,96.15 100.81,96.15 
	100.81,92.05 100.81,87.96 108.82,87.96 116.82,87.96 116.82,85.67 116.82,83.4 106.28,83.4 95.75,83.4 "/>
<path class="st0" d="M169.16,88.07c3.34,0.27,5.59,1.17,7.54,3c1.7,1.58,2.7,3.34,3.14,5.71c0.29,1.39,0.21,4.45-0.12,5.74
	c-0.84,3.13-2.97,5.68-5.96,7.09c-1.97,0.93-4.3,1.27-8.3,1.2l-2.4-0.04l-0.04-11.25c0-6.2,0-11.33,0.04-11.43
	C163.14,87.92,166.78,87.89,169.16,88.07z M157.93,99.4v16.02l6.54-0.04c6.17-0.06,6.6-0.08,7.93-0.34
	c3.52-0.73,6.29-2.19,8.55-4.44c2.97-2.97,4.41-6.66,4.41-11.25c0-8.06-4.65-13.77-12.71-15.58c-1.17-0.26-1.68-0.29-7.99-0.33
	l-6.74-0.06V99.4z"/>
<polygon class="st0" points="191.49,99.4 191.49,115.41 202.35,115.41 213.23,115.41 213.23,113.12 213.23,110.86 204.95,110.86 
	196.69,110.86 196.69,105.77 196.69,100.7 202.68,100.7 208.66,100.7 208.66,98.42 208.66,96.15 202.68,96.15 196.69,96.15 
	196.69,92.05 196.69,87.96 204.64,87.96 212.57,87.96 212.57,85.67 212.57,83.4 202.04,83.4 191.49,83.4 "/>
</svg>
